<svg width="41" height="40" viewBox="0 0 41 40" fill="none" xmlns="http://www.w3.org/2000/svg">
<path d="M33.5 13.3333H28.5V6.66667H5.16671C3.33337 6.66667 1.83337 8.16667 1.83337 10V28.3333H5.16671C5.16671 31.1 7.40004 33.3333 10.1667 33.3333C12.9334 33.3333 15.1667 31.1 15.1667 28.3333H25.1667C25.1667 31.1 27.4 33.3333 30.1667 33.3333C32.9334 33.3333 35.1667 31.1 35.1667 28.3333H38.5V20L33.5 13.3333ZM32.6667 15.8333L35.9334 20H28.5V15.8333H32.6667ZM10.1667 30C9.25004 30 8.50004 29.25 8.50004 28.3333C8.50004 27.4167 9.25004 26.6667 10.1667 26.6667C11.0834 26.6667 11.8334 27.4167 11.8334 28.3333C11.8334 29.25 11.0834 30 10.1667 30ZM13.8667 25C12.95 23.9833 11.65 23.3333 10.1667 23.3333C8.68337 23.3333 7.38337 23.9833 6.46671 25H5.16671V10H25.1667V25H13.8667ZM30.1667 30C29.25 30 28.5 29.25 28.5 28.3333C28.5 27.4167 29.25 26.6667 30.1667 26.6667C31.0834 26.6667 31.8334 27.4167 31.8334 28.3333C31.8334 29.25 31.0834 30 30.1667 30Z" fill="#417F56"/>
</svg>
