<svg width="24" height="24" viewBox="0 0 24 24" fill="none" xmlns="http://www.w3.org/2000/svg">
<path d="M19.5525 2.99691C19.3117 3.01443 19.0754 3.07091 18.8527 3.16416H18.8497C18.636 3.24891 17.6197 3.67641 16.0747 4.32441L10.5382 6.65616C6.5655 8.32866 2.66025 9.97566 2.66025 9.97566L2.70675 9.95766C2.70675 9.95766 2.4375 10.0462 2.15625 10.2389C1.98249 10.3495 1.83298 10.4941 1.71675 10.6642C1.57875 10.8667 1.46775 11.1764 1.509 11.4967C1.5765 12.0382 1.9275 12.3629 2.1795 12.5422C2.4345 12.7237 2.6775 12.8084 2.6775 12.8084H2.6835L6.34575 14.0422C6.51 14.5694 7.46175 17.6984 7.6905 18.4192C7.8255 18.8497 7.95675 19.1189 8.121 19.3244C8.2005 19.4294 8.2935 19.5172 8.40525 19.5877C8.46334 19.6215 8.52529 19.6481 8.58975 19.6672L8.55225 19.6582C8.5635 19.6612 8.5725 19.6702 8.58075 19.6732C8.61075 19.6814 8.631 19.6844 8.66925 19.6904C9.249 19.8659 9.71475 19.5059 9.71475 19.5059L9.741 19.4849L11.9032 17.5162L15.5272 20.2964L15.6097 20.3317C16.365 20.6632 17.13 20.4787 17.5342 20.1532C17.9415 19.8254 18.0997 19.4062 18.0997 19.4062L18.126 19.3387L20.9265 4.99191C21.006 4.63791 21.0262 4.30641 20.9385 3.98466C20.848 3.65903 20.6391 3.37897 20.3527 3.19941C20.1123 3.05325 19.8335 2.9827 19.5525 2.99691ZM19.4767 4.53441C19.4737 4.58166 19.4827 4.57641 19.4617 4.66716V4.67541L16.6875 18.8729C16.6755 18.8932 16.6552 18.9374 16.5997 18.9817C16.5412 19.0282 16.4947 19.0574 16.251 18.9607L11.8185 15.5624L9.141 18.0029L9.7035 14.4104L16.9455 7.66041C17.244 7.38291 17.1442 7.32441 17.1442 7.32441C17.1652 6.98391 16.6935 7.22466 16.6935 7.22466L7.5615 12.8819L7.5585 12.8669L3.1815 11.3932V11.3902L3.17025 11.3879C3.17792 11.3854 3.18543 11.3824 3.19275 11.3789L3.21675 11.3669L3.24 11.3587C3.24 11.3587 7.14825 9.71166 11.121 8.03916C13.11 7.20141 15.114 6.35766 16.6552 5.70666C17.5693 5.32191 18.4843 4.93941 19.4002 4.55916C19.4617 4.53516 19.4325 4.53441 19.4767 4.53441Z" fill="#505050"/>
</svg>
