<svg width="41" height="40" viewBox="0 0 41 40" fill="none" xmlns="http://www.w3.org/2000/svg">
<path d="M38.8333 19.9833L34.7667 15.3333L35.3333 9.18333L29.3167 7.81667L26.1667 2.5L20.5 4.93333L14.8333 2.5L11.6833 7.81667L5.66667 9.16667L6.23334 15.3333L2.16667 19.9833L6.23334 24.6333L5.66667 30.8L11.6833 32.1667L14.8333 37.5L20.5 35.05L26.1667 37.4833L29.3167 32.1667L35.3333 30.8L34.7667 24.65L38.8333 19.9833ZM32.25 22.45L31.3167 23.5333L31.45 24.95L31.75 28.2L27.1833 29.2333L26.45 30.4667L24.8 33.2667L21.8333 31.9833L20.5 31.4167L19.1833 31.9833L16.2167 33.2667L14.5667 30.4833L13.8333 29.25L9.26667 28.2167L9.56667 24.95L9.7 23.5333L8.76667 22.45L6.61667 20L8.76667 17.5333L9.7 16.45L9.55 15.0167L9.25 11.7833L13.8167 10.75L14.55 9.51667L16.2 6.71667L19.1667 8L20.5 8.56667L21.8167 8L24.7833 6.71667L26.4333 9.51667L27.1667 10.75L31.7333 11.7833L31.4333 15.0333L31.3 16.45L32.2333 17.5333L34.3833 19.9833L32.25 22.45Z" fill="#417F56"/>
<path d="M17.3167 22.9167L13.45 19.0333L10.9833 21.5167L17.3167 27.8667L29.55 15.6L27.0833 13.1167L17.3167 22.9167Z" fill="#417F56"/>
</svg>
