<svg width="32" height="32" viewBox="0 0 32 32" fill="none" xmlns="http://www.w3.org/2000/svg">
<path d="M27.9973 3.99996V6.66663C27.9973 9.14198 27.014 11.516 25.2637 13.2663C23.5133 15.0166 21.1394 16 18.664 16H17.3307V17.3333H23.9973V26.6666C23.9973 27.3739 23.7164 28.0521 23.2163 28.5522C22.7162 29.0523 22.0379 29.3333 21.3307 29.3333H10.664C9.95676 29.3333 9.27848 29.0523 8.77838 28.5522C8.27829 28.0521 7.99733 27.3739 7.99733 26.6666V17.3333H14.664V13.3333C14.664 10.8579 15.6473 8.48397 17.3977 6.73363C19.148 4.98329 21.522 3.99996 23.9973 3.99996H27.9973ZM7.33067 2.66663C8.93063 2.66533 10.5075 3.04847 11.9285 3.78379C13.3495 4.51912 14.573 5.58509 15.496 6.89196C14.0878 8.74373 13.327 11.0069 13.3307 13.3333V14.6666H12.664C10.0118 14.6666 7.4683 13.6131 5.59293 11.7377C3.71757 9.86233 2.664 7.31879 2.664 4.66663V2.66663H7.33067Z" fill="#417F56"/>
</svg>
