<svg width="32" height="32" viewBox="0 0 32 32" fill="none" xmlns="http://www.w3.org/2000/svg">
<g clip-path="url(#clip0_7815_276)">
<path d="M16.824 6.67196C16.9493 6.88974 17.0573 7.11641 17.148 7.35196C18.9947 6.3693 21.036 6.23996 22.812 6.92263C25.652 8.01596 27.42 11.032 26.6413 14.928C26.6031 15.1199 26.523 15.3011 26.4069 15.4586C26.2907 15.6161 26.1413 15.7461 25.9692 15.8394C25.7972 15.9327 25.6067 15.987 25.4113 15.9984C25.2159 16.0097 25.0204 15.978 24.8387 15.9053L18.54 13.3853C19.3867 16.4106 19.4733 19.4893 19.3307 21.912C19.227 23.6163 18.9925 25.3102 18.6293 26.9786C18.5551 27.2674 18.3881 27.5238 18.1539 27.7083C17.9198 27.8928 17.6314 27.9953 17.3333 28H14C13.7729 28 13.5495 27.9419 13.3511 27.8314C13.1527 27.7209 12.9858 27.5615 12.8663 27.3684C12.7468 27.1752 12.6786 26.9548 12.6681 26.7279C12.6577 26.501 12.7054 26.2752 12.8067 26.072C13.412 24.8586 13.812 23.512 14.1187 22.1973C14.6253 20.0253 14.9133 17.264 14.2627 14.4906L7.04 19.1306C6.85179 19.2513 6.63626 19.3227 6.41325 19.3382C6.19023 19.3538 5.96687 19.313 5.76373 19.2197C5.56059 19.1264 5.38417 18.9834 5.25072 18.8041C5.11726 18.6247 5.03104 18.4147 5 18.1933C4.49867 14.6026 5.95467 11.4053 8.42667 9.72396C8.54044 9.64663 8.656 9.57241 8.77333 9.5013L6.21867 8.5893C6.00683 8.51371 5.81756 8.38577 5.66846 8.21737C5.51937 8.04898 5.41529 7.8456 5.36592 7.62617C5.31655 7.40674 5.3235 7.17839 5.3861 6.96236C5.44871 6.74634 5.56495 6.54966 5.724 6.39063C8.06133 4.0533 11.2507 3.39996 13.7547 4.23463C15.016 4.65596 16.1373 5.4693 16.824 6.67196Z" fill="#417F56"/>
</g>
<defs>
<clipPath id="clip0_7815_276">
<rect width="32" height="32" fill="white"/>
</clipPath>
</defs>
</svg>
