<svg width="32" height="32" viewBox="0 0 32 32" fill="none" xmlns="http://www.w3.org/2000/svg">
<path d="M10.2053 28.0001L8.35866 20.6667H23.5893L21.744 28.0001H10.2053ZM15.9733 10.8201C15.9733 9.0085 16.6613 7.46628 18.0373 6.19339C19.4133 4.91872 21.016 4.19606 22.8453 4.02539C22.6569 5.70095 21.9893 7.16095 20.8427 8.40539C19.696 9.64983 18.2951 10.4361 16.64 10.7641V14.0254H26.6667V19.5894H5.33333V14.0267H15.3067V10.7641C13.6533 10.4352 12.2529 9.65295 11.1053 8.41739C9.95777 7.18184 9.29022 5.71828 9.10266 4.02672C10.9142 4.19739 12.5124 4.92406 13.8973 6.20672C15.2822 7.4885 15.9747 9.02717 15.9747 10.8227" fill="#417F56"/>
</svg>
