<svg width="32" height="32" viewBox="0 0 32 32" fill="none" xmlns="http://www.w3.org/2000/svg">
<path fill-rule="evenodd" clip-rule="evenodd" d="M18.1714 20.7068C17.6474 22.6651 17.6332 24.2982 18.1292 25.6062C19.0406 28.0108 22.2434 28.7028 22.3943 29.3331C22.5452 29.9639 18.1292 30.2857 15.6332 30.2857C13.1377 30.2857 10.0766 29.8097 10.0766 29.3331C10.0766 28.8571 12.9817 28.2251 13.8646 25.5617C14.3789 24.0091 14.3229 22.2257 13.6954 20.2125C13.5392 20.2614 13.3763 20.2861 13.2126 20.2857C12.532 20.2857 11.9652 19.8685 11.8429 19.3177C11.3732 19.6262 10.7846 19.8091 10.1463 19.8091C8.76916 19.8091 7.62573 18.9565 7.39944 17.8354C7.20338 17.8816 7.00259 17.9048 6.80116 17.9045C5.56973 17.9045 4.57144 17.0519 4.57144 15.9999C4.57144 15.2897 5.0263 14.6702 5.70116 14.3428C5.3543 14.1262 5.12916 13.7759 5.12916 13.3811C5.12916 13.2439 5.15601 13.1119 5.2063 12.9891C4.82401 12.8194 4.57144 12.5257 4.57144 12.1902C4.57144 11.7748 4.96116 11.4217 5.50401 11.2914C4.93544 10.9428 4.57144 10.4079 4.57144 9.80966C4.57144 8.85938 5.48744 8.07252 6.68516 7.92795C6.40271 7.58626 6.24689 7.15754 6.24401 6.71423C6.24401 5.5308 7.36687 4.57138 8.75258 4.57138C8.89201 4.57138 9.02916 4.58109 9.16287 4.59995C9.49716 3.75252 10.4354 3.1428 11.54 3.1428C11.8469 3.1428 12.1406 3.18966 12.4126 3.27595C12.6012 2.38795 13.512 1.71423 14.6057 1.71423C15.7246 1.71423 16.6514 2.41823 16.8114 3.33538C17.22 2.92623 17.8286 2.6668 18.5086 2.6668C19.74 2.6668 20.7383 3.51938 20.7383 4.57138C20.7383 4.92566 20.6246 5.25766 20.4274 5.54223C20.5286 5.53023 20.6326 5.52395 20.7383 5.52395C21.8846 5.52395 22.8297 6.2628 22.9543 7.21423C23.305 7.04033 23.6914 6.95072 24.0829 6.95252C25.3149 6.95252 26.3132 7.80509 26.3132 8.85709C26.3132 9.57423 25.8492 10.1988 25.1634 10.5239C25.8492 10.8485 26.3132 11.4731 26.3132 12.1902C26.3132 12.8131 25.9629 13.3668 25.4217 13.7142C25.6309 13.9531 25.7554 14.2497 25.7554 14.5714C25.7554 14.6948 25.7372 14.8142 25.7029 14.9279C26.7314 15.4154 27.428 16.3525 27.428 17.4285C27.428 19.0062 25.9309 20.2857 24.0829 20.2857C23.622 20.287 23.1647 20.205 22.7332 20.0434C22.2269 20.4868 21.52 20.7617 20.7383 20.7617C20.1403 20.7663 19.5538 20.5976 19.0497 20.2759C18.8097 20.4799 18.5086 20.6308 18.1714 20.7068Z" fill="#417F56"/>
</svg>
