<svg width="32" height="32" viewBox="0 0 32 32" fill="none" xmlns="http://www.w3.org/2000/svg">
<path d="M12 7.19995C12.0008 6.63794 12.12 6.0824 12.3499 5.56956C12.5798 5.05671 12.9152 4.59806 13.3342 4.2235C13.7532 3.84895 14.2464 3.56689 14.7817 3.39572C15.3171 3.22455 15.8824 3.16811 16.441 3.23008C16.9996 3.29204 17.5389 3.47102 18.0236 3.75535C18.5084 4.03968 18.9279 4.42298 19.2546 4.88026C19.5813 5.33754 19.808 5.85854 19.9199 6.4093C20.0318 6.96007 20.0264 7.52823 19.904 8.07675C20.4795 8.20623 21.008 8.49227 21.4312 8.90326C21.8543 9.31426 22.1556 9.83422 22.3018 10.4057C22.448 10.9772 22.4333 11.578 22.2595 12.1417C22.0857 12.7054 21.7594 13.21 21.3168 13.6C21.8043 14.0299 22.1493 14.5981 22.3059 15.229C22.4625 15.8598 22.4233 16.5234 22.1935 17.1314C21.9637 17.7394 21.5541 18.263 21.0194 18.6326C20.4846 19.0021 19.85 19.2 19.2 19.2H16.8V26.0688L21.8336 21.0336C21.908 20.9592 21.9963 20.9002 22.0935 20.8599C22.1906 20.8197 22.2948 20.7989 22.4 20.7989C22.5052 20.7989 22.6093 20.8197 22.7065 20.8599C22.8037 20.9002 22.892 20.9592 22.9664 21.0336C23.0408 21.1079 23.0998 21.1962 23.14 21.2934C23.1803 21.3906 23.201 21.4948 23.201 21.6C23.201 21.7051 23.1803 21.8093 23.14 21.9065C23.0998 22.0037 23.0408 22.092 22.9664 22.1664L16.8 28.3312V29.6C16.8 29.8121 16.7157 30.0156 16.5657 30.1656C16.4157 30.3157 16.2122 30.4 16 30.4C15.7878 30.4 15.5843 30.3157 15.4343 30.1656C15.2843 30.0156 15.2 29.8121 15.2 29.6V28.3312L9.0336 22.1664C8.88338 22.0161 8.79899 21.8124 8.79899 21.6C8.79899 21.3875 8.88338 21.1838 9.0336 21.0336C9.18382 20.8833 9.38756 20.7989 9.6 20.7989C9.81244 20.7989 10.0162 20.8833 10.1664 21.0336L15.2 26.0688V19.2H12.8C12.15 19.2 11.5154 19.0021 10.9806 18.6326C10.4459 18.263 10.0363 17.7394 9.80651 17.1314C9.57668 16.5234 9.53746 15.8598 9.69407 15.229C9.85068 14.5981 10.1957 14.0299 10.6832 13.6C10.2406 13.21 9.9143 12.7054 9.74048 12.1417C9.56666 11.578 9.55203 10.9772 9.69821 10.4057C9.84439 9.83422 10.1457 9.31426 10.5688 8.90326C10.992 8.49227 11.5205 8.20623 12.096 8.07675C12.032 7.79409 12 7.50182 12 7.19995Z" fill="#417F56"/>
</svg>
