<svg width="32" height="32" viewBox="0 0 32 32" fill="none" xmlns="http://www.w3.org/2000/svg">
<g clip-path="url(#clip0_7815_887)">
<path fill-rule="evenodd" clip-rule="evenodd" d="M14.9333 9.6C14.9333 7.05392 15.9448 4.61212 17.7451 2.81178C19.5455 1.01143 21.9873 0 24.5333 0L32 0V7.46667C32 10.0127 30.9886 12.4545 29.1882 14.2549C27.3879 16.0552 24.9461 17.0667 22.4 17.0667H17.0667V32H14.9333V23.4667H9.6C7.05392 23.4667 4.61212 22.4552 2.81178 20.6549C1.01143 18.8545 0 16.4127 0 13.8667L0 6.4H7.46667C10.4832 6.4 13.1733 7.79093 14.9333 9.9648V9.6ZM17.3781 13.1115L23.7781 6.71147L25.2885 8.22187L18.8885 14.6219L17.3781 13.1115ZM13.1115 21.0219L6.71147 14.6219L8.22187 13.1115L14.6219 19.5115L13.1115 21.0219Z" fill="#417F56"/>
</g>
<defs>
<clipPath id="clip0_7815_887">
<rect width="32" height="32" fill="white"/>
</clipPath>
</defs>
</svg>
