<svg width="32" height="32" viewBox="0 0 32 32" fill="none" xmlns="http://www.w3.org/2000/svg">
<path d="M4 17.3334C4 20.516 5.26428 23.5682 7.51472 25.8187C9.76515 28.0691 12.8174 29.3334 16 29.3334C16 22.6667 10.6267 17.3334 4 17.3334ZM16 7.33337C16.8841 7.33337 17.7319 7.68456 18.357 8.30968C18.9821 8.93481 19.3333 9.78265 19.3333 10.6667C19.3333 11.5508 18.9821 12.3986 18.357 13.0237C17.7319 13.6489 16.8841 14 16 14C15.1159 14 14.2681 13.6489 13.643 13.0237C13.0179 12.3986 12.6667 11.5508 12.6667 10.6667C12.6667 9.78265 13.0179 8.93481 13.643 8.30968C14.2681 7.68456 15.1159 7.33337 16 7.33337ZM7.46667 13.6667C7.46667 14.5508 7.81786 15.3986 8.44298 16.0237C9.0681 16.6489 9.91595 17 10.8 17C11.5067 17 12.16 16.7734 12.6667 16.4134V16.6667C12.6667 17.5508 13.0179 18.3986 13.643 19.0237C14.2681 19.6489 15.1159 20 16 20C16.8841 20 17.7319 19.6489 18.357 19.0237C18.9821 18.3986 19.3333 17.5508 19.3333 16.6667V16.4134C19.84 16.7734 20.4933 17 21.2 17C22.0841 17 22.9319 16.6489 23.557 16.0237C24.1821 15.3986 24.5333 14.5508 24.5333 13.6667C24.5333 12.3334 23.7467 11.2 22.6267 10.6667C23.7467 10.1334 24.5333 8.98671 24.5333 7.66671C24.5333 6.78265 24.1821 5.93481 23.557 5.30968C22.9319 4.68456 22.0841 4.33337 21.2 4.33337C20.4933 4.33337 19.84 4.54671 19.3333 4.92004V4.66671C19.3333 3.78265 18.9821 2.93481 18.357 2.30968C17.7319 1.68456 16.8841 1.33337 16 1.33337C15.1159 1.33337 14.2681 1.68456 13.643 2.30968C13.0179 2.93481 12.6667 3.78265 12.6667 4.66671V4.92004C12.16 4.54671 11.5067 4.33337 10.8 4.33337C9.91595 4.33337 9.0681 4.68456 8.44298 5.30968C7.81786 5.93481 7.46667 6.78265 7.46667 7.66671C7.46667 8.98671 8.25333 10.1334 9.37333 10.6667C8.25333 11.2 7.46667 12.3334 7.46667 13.6667ZM16 29.3334C19.1826 29.3334 22.2348 28.0691 24.4853 25.8187C26.7357 23.5682 28 20.516 28 17.3334C21.3333 17.3334 16 22.6667 16 29.3334Z" fill="#417F56"/>
</svg>
